<svg xmlns="http://www.w3.org/2000/svg">
  <symbol fill="none"  viewBox="0 0 20 20" id="facebook">
    <path d="M18.8958 0H1.10417C0.494167 0 0 0.494167 0 1.10417V18.8967C0 19.5058 0.494167 20 1.10417 20H10.6833V12.255H8.07667V9.23667H10.6833V7.01083C10.6833 4.4275 12.2608 3.02083 14.5658 3.02083C15.67 3.02083 16.6183 3.10333 16.895 3.14V5.84L15.2967 5.84083C14.0433 5.84083 13.8008 6.43667 13.8008 7.31V9.2375H16.79L16.4008 12.2558H13.8008V20H18.8975C19.5058 20 20 19.5058 20 18.8958V1.10417C20 0.494167 19.5058 0 18.8958 0Z" fill="currentColor"></path>
  </symbol>

  <symbol fill="none" viewBox="0 0 20 20" id="instagram">
    <path fill-rule="evenodd" clip-rule="evenodd" d="M10 0C7.28417 0 6.94417 0.0116667 5.8775 0.06C2.24583 0.226667 0.2275 2.24167 0.0608333 5.87667C0.0116667 6.94417 0 7.28417 0 10C0 12.7158 0.0116667 13.0567 0.06 14.1233C0.226667 17.755 2.24167 19.7733 5.87667 19.94C6.94417 19.9883 7.28417 20 10 20C12.7158 20 13.0567 19.9883 14.1233 19.94C17.7517 19.7733 19.775 17.7583 19.9392 14.1233C19.9883 13.0567 20 12.7158 20 10C20 7.28417 19.9883 6.94417 19.94 5.8775C19.7767 2.24917 17.7592 0.2275 14.1242 0.0608333C13.0567 0.0116667 12.7158 0 10 0ZM10 1.8025C12.67 1.8025 12.9867 1.8125 14.0417 1.86083C16.7517 1.98417 18.0175 3.27 18.1408 5.96C18.1892 7.01417 18.1983 7.33083 18.1983 10.0008C18.1983 12.6717 18.1883 12.9875 18.1408 14.0417C18.0167 16.7292 16.7542 18.0175 14.0417 18.1408C12.9867 18.1892 12.6717 18.1992 10 18.1992C7.33 18.1992 7.01333 18.1892 5.95917 18.1408C3.2425 18.0167 1.98333 16.725 1.86 14.0408C1.81167 12.9867 1.80167 12.6708 1.80167 10C1.80167 7.33 1.8125 7.01417 1.86 5.95917C1.98417 3.27 3.24667 1.98333 5.95917 1.86C7.01417 1.8125 7.33 1.8025 10 1.8025ZM4.865 10C4.865 7.16417 7.16417 4.865 10 4.865C12.8358 4.865 15.135 7.16417 15.135 10C15.135 12.8367 12.8358 15.1358 10 15.1358C7.16417 15.1358 4.865 12.8358 4.865 10ZM10 13.3333C8.15917 13.3333 6.66667 11.8417 6.66667 10C6.66667 8.15917 8.15917 6.66667 10 6.66667C11.8408 6.66667 13.3333 8.15917 13.3333 10C13.3333 11.8417 11.8408 13.3333 10 13.3333ZM14.1375 4.6625C14.1375 4 14.675 3.4625 15.3383 3.4625C16.0008 3.4625 16.5375 4 16.5375 4.6625C16.5375 5.325 16.0008 5.8625 15.3383 5.8625C14.675 5.8625 14.1375 5.325 14.1375 4.6625Z" fill="currentColor"></path>
  </symbol>
  <symbol fill="none" viewBox="0 0 20 20" id="twitter">
    <path d="M20 3.79746C19.2642 4.12412 18.4733 4.34412 17.6433 4.44329C18.4908 3.93579 19.1417 3.13162 19.4475 2.17329C18.655 2.64329 17.7767 2.98496 16.8417 3.16912C16.0942 2.37162 15.0267 1.87329 13.8467 1.87329C11.1975 1.87329 9.25083 4.34496 9.84917 6.91079C6.44 6.73996 3.41667 5.10662 1.3925 2.62412C0.3175 4.46829 0.835 6.88079 2.66167 8.10246C1.99 8.08079 1.35667 7.89662 0.804167 7.58912C0.759167 9.48996 2.12167 11.2683 4.095 11.6641C3.5175 11.8208 2.885 11.8575 2.24167 11.7341C2.76333 13.3641 4.27833 14.55 6.075 14.5833C4.35 15.9358 2.17667 16.54 0 16.2833C1.81583 17.4475 3.97333 18.1266 6.29 18.1266C13.9083 18.1266 18.2125 11.6925 17.9525 5.92162C18.7542 5.34246 19.45 4.61996 20 3.79746Z" fill="currentColor"></path>
  </symbol>
</svg>